<svg xmlns="http://www.w3.org/2000/svg" viewBox="0 0 100 100" width="60" height="60">
  <circle cx="50" cy="50" r="45" fill="#e6f2ff" />
  <path d="M50 20C33.4 20 20 33.4 20 50s13.4 30 30 30 30-13.4 30-30S66.6 20 50 20zm0 54c-13.3 0-24-10.7-24-24s10.7-24 24-24 24 10.7 24 24-10.7 24-24 24z" fill="#4e6ef2"/>
  <circle cx="50" cy="50" r="10" fill="#4e6ef2"/>
  <path d="M71.2 28.8c1.2 1.2 3.1 1.2 4.2 0 1.2-1.2 1.2-3.1 0-4.2-1.2-1.2-3.1-1.2-4.2 0-1.2 1.1-1.2 3 0 4.2z" fill="#4e6ef2"/>
  <path d="M24.6 75.4c1.2 1.2 3.1 1.2 4.2 0 1.2-1.2 1.2-3.1 0-4.2-1.2-1.2-3.1-1.2-4.2 0-1.2 1.1-1.2 3 0 4.2z" fill="#4e6ef2"/>
  <path d="M75.4 75.4c1.2-1.2 1.2-3.1 0-4.2-1.2-1.2-3.1-1.2-4.2 0-1.2 1.2-1.2 3.1 0 4.2 1.1 1.2 3 1.2 4.2 0z" fill="#4e6ef2"/>
  <path d="M28.8 28.8c1.2-1.2 1.2-3.1 0-4.2-1.2-1.2-3.1-1.2-4.2 0-1.2 1.2-1.2 3.1 0 4.2 1.1 1.2 3 1.2 4.2 0z" fill="#4e6ef2"/>
  <path d="M50 10c-1.7 0-3 1.3-3 3v8c0 1.7 1.3 3 3 3s3-1.3 3-3v-8c0-1.7-1.3-3-3-3z" fill="#4e6ef2"/>
  <path d="M50 76c-1.7 0-3 1.3-3 3v8c0 1.7 1.3 3 3 3s3-1.3 3-3v-8c0-1.7-1.3-3-3-3z" fill="#4e6ef2"/>
  <path d="M90 47h-8c-1.7 0-3 1.3-3 3s1.3 3 3 3h8c1.7 0 3-1.3 3-3s-1.3-3-3-3z" fill="#4e6ef2"/>
  <path d="M18 47h-8c-1.7 0-3 1.3-3 3s1.3 3 3 3h8c1.7 0 3-1.3 3-3s-1.3-3-3-3z" fill="#4e6ef2"/>
</svg>