<svg viewBox="0 0 800 500" xmlns="http://www.w3.org/2000/svg">
  <!-- Arrière-plan -->
  <rect width="800" height="500" fill="#f8f9fa" rx="10" ry="10" />
  
  <!-- Titre -->
  <text x="400" y="40" text-anchor="middle" font-family="Arial, sans-serif" font-size="20" font-weight="bold" fill="#212529">Courbes d'Apprentissage - Modèles WebSecure</text>
  
  <!-- Axe X -->
  <line x1="100" y1="400" x2="700" y2="400" stroke="#6c757d" stroke-width="2" />
  <text x="400" y="430" text-anchor="middle" font-family="Arial, sans-serif" font-size="14" fill="#6c757d">Taille de l'échantillon d'entraînement</text>
  
  <!-- Axe Y -->
  <line x1="100" y1="400" x2="100" y2="100" stroke="#6c757d" stroke-width="2" />
  <text x="60" y="250" text-anchor="middle" font-family="Arial, sans-serif" font-size="14" fill="#6c757d" transform="rotate(-90, 60, 250)">Performance (F1-Score)</text>
  
  <!-- Graduations axe X -->
  <g font-family="Arial, sans-serif" font-size="12" fill="#6c757d" text-anchor="middle">
    <text x="100" y="420">0</text>
    <line x1="100" y1="400" x2="100" y2="405" stroke="#6c757d" stroke-width="1" />
    
    <text x="220" y="420">2 000</text>
    <line x1="220" y1="400" x2="220" y2="405" stroke="#6c757d" stroke-width="1" />
    
    <text x="340" y="420">4 000</text>
    <line x1="340" y1="400" x2="340" y2="405" stroke="#6c757d" stroke-width="1" />
    
    <text x="460" y="420">6 000</text>
    <line x1="460" y1="400" x2="460" y2="405" stroke="#6c757d" stroke-width="1" />
    
    <text x="580" y="420">8 000</text>
    <line x1="580" y1="400" x2="580" y2="405" stroke="#6c757d" stroke-width="1" />
    
    <text x="700" y="420">10 000</text>
    <line x1="700" y1="400" x2="700" y2="405" stroke="#6c757d" stroke-width="1" />
  </g>
  
  <!-- Graduations axe Y -->
  <g font-family="Arial, sans-serif" font-size="12" fill="#6c757d" text-anchor="end">
    <text x="90" y="400">0.0</text>
    <line x1="95" y1="400" x2="100" y2="400" stroke="#6c757d" stroke-width="1" />
    
    <text x="90" y="340">0.2</text>
    <line x1="95" y1="340" x2="100" y2="340" stroke="#6c757d" stroke-width="1" />
    
    <text x="90" y="280">0.4</text>
    <line x1="95" y1="280" x2="100" y2="280" stroke="#6c757d" stroke-width="1" />
    
    <text x="90" y="220">0.6</text>
    <line x1="95" y1="220" x2="100" y2="220" stroke="#6c757d" stroke-width="1" />
    
    <text x="90" y="160">0.8</text>
    <line x1="95" y1="160" x2="100" y2="160" stroke="#6c757d" stroke-width="1" />
    
    <text x="90" y="100">1.0</text>
    <line x1="95" y1="100" x2="100" y2="100" stroke="#6c757d" stroke-width="1" />
  </g>
  
  <!-- Grille -->
  <g stroke="#dee2e6" stroke-width="1" stroke-dasharray="5,5">
    <line x1="100" y1="340" x2="700" y2="340" />
    <line x1="100" y1="280" x2="700" y2="280" />
    <line x1="100" y1="220" x2="700" y2="220" />
    <line x1="100" y1="160" x2="700" y2="160" />
    <line x1="220" y1="100" x2="220" y2="400" />
    <line x1="340" y1="100" x2="340" y2="400" />
    <line x1="460" y1="100" x2="460" y2="400" />
    <line x1="580" y1="100" x2="580" y2="400" />
  </g>
  
  <!-- Courbe XGBoost -->
  <path d="M100,340 Q160,260 220,220 T340,160 T460,130 T580,120 T700,115" fill="none" stroke="#3f6ad8" stroke-width="3" />
  
  <!-- Points de données XGBoost -->
  <circle cx="100" cy="340" r="4" fill="#3f6ad8" />
  <circle cx="220" cy="220" r="4" fill="#3f6ad8" />
  <circle cx="340" cy="160" r="4" fill="#3f6ad8" />
  <circle cx="460" cy="130" r="4" fill="#3f6ad8" />
  <circle cx="580" cy="120" r="4" fill="#3f6ad8" />
  <circle cx="700" cy="115" r="4" fill="#3f6ad8" />
  
  <!-- Courbe Random Forest -->
  <path d="M100,330 Q160,270 220,230 T340,180 T460,150 T580,140 T700,135" fill="none" stroke="#28a745" stroke-width="3" />
  
  <!-- Points de données Random Forest -->
  <circle cx="100" cy="330" r="4" fill="#28a745" />
  <circle cx="220" cy="230" r="4" fill="#28a745" />
  <circle cx="340" cy="180" r="4" fill="#28a745" />
  <circle cx="460" cy="150" r="4" fill="#28a745" />
  <circle cx="580" cy="140" r="4" fill="#28a745" />
  <circle cx="700" cy="135" r="4" fill="#28a745" />
  
  <!-- Courbe LSTM -->
  <path d="M100,360 Q160,300 220,260 T340,210 T460,180 T580,160 T700,155" fill="none" stroke="#fd7e14" stroke-width="3" />
  
  <!-- Points de données LSTM -->
  <circle cx="100" cy="360" r="4" fill="#fd7e14" />
  <circle cx="220" cy="260" r="4" fill="#fd7e14" />
  <circle cx="340" cy="210" r="4" fill="#fd7e14" />
  <circle cx="460" cy="180" r="4" fill="#fd7e14" />
  <circle cx="580" cy="160" r="4" fill="#fd7e14" />
  <circle cx="700" cy="155" r="4" fill="#fd7e14" />
  
  <!-- Légende -->
  <g transform="translate(550, 80)">
    <rect width="130" height="90" rx="5" ry="5" fill="white" stroke="#dee2e6" stroke-width="1" />
    
    <line x1="10" y1="20" x2="30" y2="20" stroke="#3f6ad8" stroke-width="3" />
    <circle cx="20" cy="20" r="4" fill="#3f6ad8" />
    <text x="40" y="24" font-family="Arial, sans-serif" font-size="12" fill="#212529">XGBoost (0.92)</text>
    
    <line x1="10" y1="45" x2="30" y2="45" stroke="#28a745" stroke-width="3" />
    <circle cx="20" cy="45" r="4" fill="#28a745" />
    <text x="40" y="49" font-family="Arial, sans-serif" font-size="12" fill="#212529">Random Forest (0.89)</text>
    
    <line x1="10" y1="70" x2="30" y2="70" stroke="#fd7e14" stroke-width="3" />
    <circle cx="20" cy="70" r="4" fill="#fd7e14" />
    <text x="40" y="74" font-family="Arial, sans-serif" font-size="12" fill="#212529">LSTM (0.85)</text>
  </g>
  
  <!-- Annotation des points clés -->
  <g transform="translate(340, 160)">
    <line x1="0" y1="0" x2="-20" y2="-30" stroke="#6c757d" stroke-width="1" />
    <circle cx="0" cy="0" r="6" fill="#f8f9fa" stroke="#3f6ad8" stroke-width="2" />
    <rect x="-100" y="-60" width="160" height="25" rx="5" ry="5" fill="white" stroke="#dee2e6" stroke-width="1" />
    <text x="-20" y="-42" text-anchor="middle" font-family="Arial, sans-serif" font-size="11" fill="#212529">Amélioration significative à 4 000 échantillons</text>
  </g>
  
  <g transform="translate(650, 145)">
    <line x1="0" y1="0" x2="20" y2="-30" stroke="#6c757d" stroke-width="1" />
    <rect x="-30" y="-60" width="150" height="25" rx="5" ry="5" fill="white" stroke="#dee2e6" stroke-width="1" />
    <text x="45" y="-42" text-anchor="middle" font-family="Arial, sans-serif" font-size="11" fill="#212529">Plateau de performance à 8 000+</text>
  </g>
  
  <!-- Légende bas de graphique -->
  <text x="400" y="460" text-anchor="middle" font-family="Arial, sans-serif" font-size="12" fill="#6c757d">Evolution de la performance (F1-Score) en fonction de la taille de l'échantillon d'entraînement</text>
  <text x="400" y="478" text-anchor="middle" font-family="Arial, sans-serif" font-size="12" fill="#6c757d">pour différents modèles de détection de vulnérabilités web</text>
</svg>
