<?xml version="1.0" encoding="UTF-8"?>
<svg width="800" height="600" viewBox="0 0 800 600" xmlns="http://www.w3.org/2000/svg">
  <!-- Background gradient -->
  <defs>
    <linearGradient id="bgGradient" x1="0%" y1="0%" x2="100%" y2="100%">
      <stop offset="0%" stop-color="#1a237e" />
      <stop offset="100%" stop-color="#283593" />
    </linearGradient>
    
    <!-- Glow filter for shield -->
    <filter id="glow" x="-50%" y="-50%" width="200%" height="200%">
      <feGaussianBlur stdDeviation="10" result="blur" />
      <feComposite in="SourceGraphic" in2="blur" operator="over" />
    </filter>
    
    <!-- Digital pattern -->
    <pattern id="digitalPattern" x="0" y="0" width="50" height="50" patternUnits="userSpaceOnUse">
      <rect x="0" y="0" width="50" height="50" fill="none" />
      <path d="M0,0 L10,0 L10,10 L0,10 Z" fill="#4051b5" fill-opacity="0.3" />
      <path d="M20,20 L30,20 L30,30 L20,30 Z" fill="#4051b5" fill-opacity="0.3" />
      <path d="M40,40 L50,40 L50,50 L40,50 Z" fill="#4051b5" fill-opacity="0.3" />
      <path d="M10,40 L20,40 L20,50 L10,50 Z" fill="#4051b5" fill-opacity="0.3" />
      <path d="M30,10 L40,10 L40,20 L30,20 Z" fill="#4051b5" fill-opacity="0.3" />
    </pattern>
  </defs>
  
  <!-- Background -->
  <rect width="800" height="600" fill="url(#bgGradient)" />
  <rect width="800" height="600" fill="url(#digitalPattern)" />
  
  <!-- Network lines -->
  <g opacity="0.6">
    <path d="M50,150 Q400,50 750,150" stroke="#64b5f6" stroke-width="2" fill="none" />
    <path d="M50,250 Q400,150 750,250" stroke="#64b5f6" stroke-width="2" fill="none" />
    <path d="M50,350 Q400,250 750,350" stroke="#64b5f6" stroke-width="2" fill="none" />
    <path d="M50,450 Q400,350 750,450" stroke="#64b5f6" stroke-width="2" fill="none" />
    
    <path d="M150,50 Q250,300 150,550" stroke="#64b5f6" stroke-width="2" fill="none" />
    <path d="M300,50 Q400,300 300,550" stroke="#64b5f6" stroke-width="2" fill="none" />
    <path d="M450,50 Q550,300 450,550" stroke="#64b5f6" stroke-width="2" fill="none" />
    <path d="M600,50 Q700,300 600,550" stroke="#64b5f6" stroke-width="2" fill="none" />
  </g>
  
  <!-- Data points at line intersections -->
  <g>
    <circle cx="150" cy="150" r="5" fill="#29b6f6" />
    <circle cx="150" cy="250" r="5" fill="#29b6f6" />
    <circle cx="150" cy="350" r="5" fill="#29b6f6" />
    <circle cx="150" cy="450" r="5" fill="#29b6f6" />
    
    <circle cx="300" cy="150" r="5" fill="#29b6f6" />
    <circle cx="300" cy="250" r="5" fill="#29b6f6" />
    <circle cx="300" cy="350" r="5" fill="#29b6f6" />
    <circle cx="300" cy="450" r="5" fill="#29b6f6" />
    
    <circle cx="450" cy="150" r="5" fill="#29b6f6" />
    <circle cx="450" cy="250" r="5" fill="#29b6f6" />
    <circle cx="450" cy="350" r="5" fill="#29b6f6" />
    <circle cx="450" cy="450" r="5" fill="#29b6f6" />
    
    <circle cx="600" cy="150" r="5" fill="#29b6f6" />
    <circle cx="600" cy="250" r="5" fill="#29b6f6" />
    <circle cx="600" cy="350" r="5" fill="#29b6f6" />
    <circle cx="600" cy="450" r="5" fill="#29b6f6" />
  </g>
  
  <!-- Glowing Shield in center -->
  <g transform="translate(400,300)" filter="url(#glow)">
    <!-- Shield shape -->
    <path d="M0,-120 C-80,-120 -100,-60 -100,0 C-100,80 -30,140 0,150 C30,140 100,80 100,0 C100,-60 80,-120 0,-120 Z" 
          fill="#448aff" stroke="#ffffff" stroke-width="3" />
    
    <!-- Lock icon in center of shield -->
    <g transform="translate(0,10) scale(0.6)">
      <rect x="-40" y="-30" width="80" height="60" rx="10" ry="10" fill="#f5f5f5" />
      <rect x="-25" y="-55" width="50" height="35" rx="5" ry="5" fill="#f5f5f5" />
      <rect x="-15" y="-50" width="30" height="65" rx="5" ry="5" fill="#283593" />
      <circle cx="0" cy="0" r="12" fill="#283593" />
      <rect x="-2" y="-5" width="4" height="15" fill="#f5f5f5" />
    </g>
  </g>
  
  <!-- Web elements -->
  <g opacity="0.8">
    <!-- HTML tag symbols -->
    <text x="180" y="120" font-family="monospace" font-size="24" fill="#66bb6a">&lt;/&gt;</text>
    <text x="620" y="400" font-family="monospace" font-size="24" fill="#66bb6a">&lt;/&gt;</text>
    
    <!-- CSS symbol -->
    <text x="220" y="450" font-family="monospace" font-size="22" fill="#7986cb">#{ }</text>
    <text x="550" y="180" font-family="monospace" font-size="22" fill="#7986cb">#{ }</text>
    
    <!-- Security symbols -->
    <text x="120" y="350" font-family="monospace" font-size="20" fill="#ef5350">🔒</text>
    <text x="650" y="250" font-family="monospace" font-size="20" fill="#ef5350">🔒</text>
    
    <!-- Binary data streams -->
    <text x="100" y="200" font-family="monospace" font-size="12" fill="#b3e5fc">01001010</text>
    <text x="500" y="450" font-family="monospace" font-size="12" fill="#b3e5fc">10110101</text>
    <text x="300" y="100" font-family="monospace" font-size="12" fill="#b3e5fc">11001010</text>
    <text x="650" y="320" font-family="monospace" font-size="12" fill="#b3e5fc">01101001</text>
  </g>
  
  <!-- Floating particles -->
  <g>
    <circle cx="100" cy="100" r="3" fill="#bbdefb">
      <animate attributeName="cy" from="100" to="150" dur="3s" repeatCount="indefinite" />
    </circle>
    <circle cx="700" cy="200" r="3" fill="#bbdefb">
      <animate attributeName="cy" from="200" to="250" dur="4s" repeatCount="indefinite" />
    </circle>
    <circle cx="200" cy="500" r="3" fill="#bbdefb">
      <animate attributeName="cy" from="500" to="450" dur="5s" repeatCount="indefinite" />
    </circle>
    <circle cx="600" cy="500" r="3" fill="#bbdefb">
      <animate attributeName="cy" from="500" to="450" dur="3.5s" repeatCount="indefinite" />
    </circle>
    <circle cx="400" cy="100" r="3" fill="#bbdefb">
      <animate attributeName="cy" from="100" to="150" dur="4.5s" repeatCount="indefinite" />
    </circle>
  </g>
  
  <!-- Alert indicators -->
  <g>
    <path d="M150,160 L170,190 L130,190 Z" fill="#ffeb3b" stroke="#f57f17" stroke-width="1" />
    <text x="150" y="185" font-family="Arial" font-size="14" text-anchor="middle" fill="#f57f17">!</text>
    
    <path d="M600,370 L620,400 L580,400 Z" fill="#ffeb3b" stroke="#f57f17" stroke-width="1" />
    <text x="600" y="395" font-family="Arial" font-size="14" text-anchor="middle" fill="#f57f17">!</text>
  </g>
  
  <!-- Scanning elements -->
  <g>
    <line x1="200" y1="350" x2="300" y2="350" stroke="#76ff03" stroke-width="2">
      <animate attributeName="x1" from="200" to="300" dur="2s" repeatCount="indefinite" />
      <animate attributeName="x2" from="300" to="400" dur="2s" repeatCount="indefinite" />
    </line>
    
    <line x1="500" y1="250" x2="600" y2="250" stroke="#76ff03" stroke-width="2">
      <animate attributeName="x1" from="500" to="400" dur="2s" repeatCount="indefinite" />
      <animate attributeName="x2" from="600" to="500" dur="2s" repeatCount="indefinite" />
    </line>
  </g>
</svg>